<?xml version="1.0" encoding="UTF-8" standalone="no"?>
<!-- Generator: Adobe Illustrator 22.0.1, SVG Export Plug-In . SVG Version: 6.00 Build 0)  -->

<svg
   xmlns:dc="http://purl.org/dc/elements/1.1/"
   xmlns:cc="http://creativecommons.org/ns#"
   xmlns:rdf="http://www.w3.org/1999/02/22-rdf-syntax-ns#"
   xmlns:svg="http://www.w3.org/2000/svg"
   xmlns="http://www.w3.org/2000/svg"
   xmlns:sodipodi="http://sodipodi.sourceforge.net/DTD/sodipodi-0.dtd"
   xmlns:inkscape="http://www.inkscape.org/namespaces/inkscape"
   version="1.1"
   id="Ebene_1"
   x="0px"
   y="0px"
   viewBox="0 0 300 300"
   xml:space="preserve"
   sodipodi:docname="bot_orange.svg"
   width="300"
   height="300"
   inkscape:version="0.92.1 r15371"><metadata
     id="metadata3766"><rdf:RDF><cc:Work
         rdf:about=""><dc:format>image/svg+xml</dc:format><dc:type
           rdf:resource="http://purl.org/dc/dcmitype/StillImage" /><dc:title></dc:title></cc:Work></rdf:RDF></metadata><defs
     id="defs3764" /><sodipodi:namedview
     pagecolor="#ffffff"
     bordercolor="#666666"
     borderopacity="1"
     objecttolerance="10"
     gridtolerance="10"
     guidetolerance="10"
     inkscape:pageopacity="0"
     inkscape:pageshadow="2"
     inkscape:window-width="1920"
     inkscape:window-height="1015"
     id="namedview3762"
     showgrid="false"
     fit-margin-top="0"
     fit-margin-left="0"
     fit-margin-right="0"
     fit-margin-bottom="0"
     inkscape:pagecheckerboard="true"
     inkscape:zoom="0.97222222"
     inkscape:cx="306.35715"
     inkscape:cy="68.057177"
     inkscape:window-x="0"
     inkscape:window-y="1024"
     inkscape:window-maximized="1"
     inkscape:current-layer="Ebene_1" /><style
     type="text/css"
     id="style3743">
	.st0{fill:#F8BC19;}
	.st1{fill:#F8E353;}
	.st2{fill:#F28A24;}
</style><g
     id="g3759"
     transform="matrix(2.027027,0,0,2.027027,-470.47297,-651.08107)"><path
       class="st0"
       d="m 306.1,321.2 c -40.9,0 -74,33.1 -74,74 0,40.9 33.1,74 74,74 40.9,0 74,-33.1 74,-74 0,-40.8 -33.1,-74 -74,-74 z"
       id="path3745"
       inkscape:connector-curvature="0"
       style="fill:#f8bc19" /><g
       id="g3757"><path
         class="st1"
         d="m 312.5,442.9 h -12.4 c -2.5,0 -4.5,-2 -4.5,-4.5 v -24.3 c 0,-2.5 2,-4.5 4.5,-4.5 h 12.4 c 2.5,0 4.5,2 4.5,4.5 v 24.3 c 0,2.5 -2,4.5 -4.5,4.5 z"
         id="path3747"
         inkscape:connector-curvature="0"
         style="fill:#f8e353" /><g
         id="g3753"><path
           class="st2"
           d="m 314.8,432.2 h -16.7 c -9.7,0 -17.7,7.9 -17.8,17.7 8.1,3.5 17.1,5.4 26.5,5.4 9.1,0 17.8,-1.8 25.7,-5.1 0,0 0,-0.1 0,-0.1 V 450 c 0,-9.8 -8,-17.8 -17.7,-17.8 z"
           id="path3749"
           inkscape:connector-curvature="0"
           style="fill:#f28a24" /><path
           class="st2"
           d="m 348,382.3 v 0 c -0.2,0 -0.3,0 -0.5,0 -3.9,-11.1 -14.5,-19.1 -26.8,-19.1 h -6.1 c -0.3,-1.6 -1.8,-2.9 -3.5,-2.9 h -2.4 v -10 c 1.7,-0.9 2.9,-2.6 2.9,-4.7 0,-2.9 -2.4,-5.3 -5.3,-5.3 -2.9,0 -5.3,2.4 -5.3,5.3 0,2.1 1.2,3.8 2.9,4.7 v 10 h -2.4 c -1.7,0 -3.2,1.2 -3.5,2.9 h -6.1 c -12.4,0 -22.9,8 -26.8,19.1 -0.1,0 -0.3,0 -0.4,0 v 0 c -3.3,0 -5.9,2.7 -5.9,5.9 v 7.1 c 0,3 2.3,5.5 5.2,5.9 2.2,13.5 14,23.8 28,23.8 h 28.6 c 14.1,0 25.8,-10.4 28,-23.8 2.9,-0.4 5.2,-2.9 5.2,-5.9 v -7.1 c 0.1,-3.2 -2.5,-5.9 -5.8,-5.9 z"
           id="path3751"
           inkscape:connector-curvature="0"
           style="fill:#f28a24" /></g><path
         class="st1"
         d="m 337.4,394.4 c 0,-8.7 -7.1,-15.8 -15.8,-15.8 h -30.8 c -8.7,0 -15.8,7.1 -15.8,15.8 0,8.7 7.1,15.8 15.8,15.8 h 28.6 c 1.8,1.7 5.9,5.1 11,6.4 0,0 -1.6,-4.7 -2.1,-7.9 5.4,-2.6 9.1,-8 9.1,-14.3 z m -46.1,6 c -2.3,0 -4.1,-1.8 -4.1,-4.1 0,-2.3 1.8,-4.1 4.1,-4.1 2.3,0 4.1,1.8 4.1,4.1 0,2.3 -1.8,4.1 -4.1,4.1 z m 28.7,0.2 c -2.3,0 -4.1,-1.8 -4.1,-4.1 0,-2.3 1.8,-4.1 4.1,-4.1 2.3,0 4.1,1.8 4.1,4.1 0,2.3 -1.8,4.1 -4.1,4.1 z"
         id="path3755"
         inkscape:connector-curvature="0"
         style="fill:#f8e353" /></g></g></svg>